<svg id="visual" viewBox="0 0 900 600" width="600" height="600" xmlns="http://www.w3.org/2000/svg" xmlns:xlink="http://www.w3.org/1999/xlink" version="1.1"><g stroke-width="1" stroke-linejoin="bevel"><path d="M383.7 237L360.7 118L240.1 251Z" fill="#271e48" stroke="#271e48"></path><path d="M360.7 118L240.1 113L240.1 251Z" fill="#a32a61" stroke="#a32a61"></path><path d="M240.1 113L129.6 241L240.1 251Z" fill="#271e48" stroke="#271e48"></path><path d="M135.6 344L244.1 376L240.1 251Z" fill="#3f2354" stroke="#3f2354"></path><path d="M240.1 251L244.1 376L383.7 237Z" fill="#57255c" stroke="#57255c"></path><path d="M530.3 0L370.7 0L360.7 118Z" fill="#271e48" stroke="#271e48"></path><path d="M360.7 118L242.1 0L240.1 113Z" fill="#3f2354" stroke="#3f2354"></path><path d="M370.7 0L242.1 0L360.7 118Z" fill="#a32a61" stroke="#a32a61"></path><path d="M240.1 113L116.6 125L129.6 241Z" fill="#8b2863" stroke="#8b2863"></path><path d="M131.6 0L116.6 125L240.1 113Z" fill="#57255c" stroke="#57255c"></path><path d="M244.1 376L401.7 383L383.7 237Z" fill="#8b2863" stroke="#8b2863"></path><path d="M383.7 237L530.3 140L360.7 118Z" fill="#ce3a53" stroke="#ce3a53"></path><path d="M401.7 383L521.3 240L383.7 237Z" fill="#712761" stroke="#712761"></path><path d="M521.3 240L530.3 140L383.7 237Z" fill="#3f2354" stroke="#3f2354"></path><path d="M0 230L135.6 344L129.6 241Z" fill="#00112c" stroke="#00112c"></path><path d="M129.6 241L135.6 344L240.1 251Z" fill="#271e48" stroke="#271e48"></path><path d="M242.1 0L131.6 0L240.1 113Z" fill="#712761" stroke="#712761"></path><path d="M135.6 344L239.1 471L244.1 376Z" fill="#57255c" stroke="#57255c"></path><path d="M244.1 376L239.1 471L401.7 383Z" fill="#a32a61" stroke="#a32a61"></path><path d="M521.3 456L538.3 363L401.7 383Z" fill="#11193b" stroke="#11193b"></path><path d="M401.7 383L538.3 363L521.3 240Z" fill="#ce3a53" stroke="#ce3a53"></path><path d="M521.3 240L646.9 231L530.3 140Z" fill="#ba305b" stroke="#ba305b"></path><path d="M239.1 471L406.7 462L401.7 383Z" fill="#a32a61" stroke="#a32a61"></path><path d="M530.3 140L530.3 0L360.7 118Z" fill="#00112c" stroke="#00112c"></path><path d="M635.9 0L530.3 0L530.3 140Z" fill="#ce3a53" stroke="#ce3a53"></path><path d="M116.6 125L0 230L129.6 241Z" fill="#57255c" stroke="#57255c"></path><path d="M135.6 344L115.6 487L239.1 471Z" fill="#a32a61" stroke="#a32a61"></path><path d="M0 104L0 230L116.6 125Z" fill="#00112c" stroke="#00112c"></path><path d="M131.6 0L0 104L116.6 125Z" fill="#712761" stroke="#712761"></path><path d="M406.7 462L521.3 456L401.7 383Z" fill="#a32a61" stroke="#a32a61"></path><path d="M512.3 600L521.3 456L406.7 462Z" fill="#3f2354" stroke="#3f2354"></path><path d="M635.9 339L521.3 240L538.3 363Z" fill="#3f2354" stroke="#3f2354"></path><path d="M635.9 339L646.9 231L521.3 240Z" fill="#712761" stroke="#712761"></path><path d="M0 371L115.6 487L135.6 344Z" fill="#3f2354" stroke="#3f2354"></path><path d="M239.1 471L260.1 600L406.7 462Z" fill="#df4848" stroke="#df4848"></path><path d="M0 230L0 371L135.6 344Z" fill="#271e48" stroke="#271e48"></path><path d="M646.9 231L661.9 134L530.3 140Z" fill="#57255c" stroke="#57255c"></path><path d="M131.6 0L0 0L0 104Z" fill="#57255c" stroke="#57255c"></path><path d="M632.9 494L635.9 339L538.3 363Z" fill="#11193b" stroke="#11193b"></path><path d="M646.9 231L758.4 246L661.9 134Z" fill="#ba305b" stroke="#ba305b"></path><path d="M661.9 134L635.9 0L530.3 140Z" fill="#3f2354" stroke="#3f2354"></path><path d="M128.6 600L260.1 600L239.1 471Z" fill="#a32a61" stroke="#a32a61"></path><path d="M0 371L0 470L115.6 487Z" fill="#00112c" stroke="#00112c"></path><path d="M115.6 487L128.6 600L239.1 471Z" fill="#ba305b" stroke="#ba305b"></path><path d="M260.1 600L402.7 600L406.7 462Z" fill="#3f2354" stroke="#3f2354"></path><path d="M521.3 456L632.9 494L538.3 363Z" fill="#8b2863" stroke="#8b2863"></path><path d="M512.3 600L632.9 494L521.3 456Z" fill="#df4848" stroke="#df4848"></path><path d="M749.4 344L758.4 246L646.9 231Z" fill="#df4848" stroke="#df4848"></path><path d="M0 600L128.6 600L115.6 487Z" fill="#ba305b" stroke="#ba305b"></path><path d="M749.4 344L646.9 231L635.9 339Z" fill="#8b2863" stroke="#8b2863"></path><path d="M661.9 134L755.4 102L635.9 0Z" fill="#3f2354" stroke="#3f2354"></path><path d="M758.4 246L755.4 102L661.9 134Z" fill="#57255c" stroke="#57255c"></path><path d="M402.7 600L512.3 600L406.7 462Z" fill="#712761" stroke="#712761"></path><path d="M632.9 494L749.4 344L635.9 339Z" fill="#df4848" stroke="#df4848"></path><path d="M755.4 102L775.4 0L635.9 0Z" fill="#11193b" stroke="#11193b"></path><path d="M900 106L775.4 0L755.4 102Z" fill="#3f2354" stroke="#3f2354"></path><path d="M0 470L0 600L115.6 487Z" fill="#a32a61" stroke="#a32a61"></path><path d="M512.3 600L659.9 600L632.9 494Z" fill="#712761" stroke="#712761"></path><path d="M632.9 494L769.4 503L749.4 344Z" fill="#a32a61" stroke="#a32a61"></path><path d="M659.9 600L769.4 503L632.9 494Z" fill="#df4848" stroke="#df4848"></path><path d="M900 378L900 219L758.4 246Z" fill="#a32a61" stroke="#a32a61"></path><path d="M758.4 246L900 219L755.4 102Z" fill="#11193b" stroke="#11193b"></path><path d="M900 378L758.4 246L749.4 344Z" fill="#ce3a53" stroke="#ce3a53"></path><path d="M900 219L900 106L755.4 102Z" fill="#11193b" stroke="#11193b"></path><path d="M659.9 600L768.4 600L769.4 503Z" fill="#ba305b" stroke="#ba305b"></path><path d="M769.4 503L900 378L749.4 344Z" fill="#ba305b" stroke="#ba305b"></path><path d="M900 494L900 378L769.4 503Z" fill="#a32a61" stroke="#a32a61"></path><path d="M900 106L900 0L775.4 0Z" fill="#712761" stroke="#712761"></path><path d="M900 600L900 494L769.4 503Z" fill="#a32a61" stroke="#a32a61"></path><path d="M768.4 600L900 600L769.4 503Z" fill="#3f2354" stroke="#3f2354"></path></g></svg>