<svg id="visual" viewBox="0 0 540 960" width="540" height="960" xmlns="http://www.w3.org/2000/svg" xmlns:xlink="http://www.w3.org/1999/xlink" version="1.1"><g stroke-width="1" stroke-linejoin="bevel"><path d="M284.6 507.9L247.4 420.1L244.4 511.9Z" fill="#df4848" stroke="#df4848"></path><path d="M284.6 507.9L328.6 463.1L247.4 420.1Z" fill="#3f2354" stroke="#3f2354"></path><path d="M247.4 420.1L178.3 498.9L244.4 511.9Z" fill="#00112c" stroke="#00112c"></path><path d="M332.6 350.2L250.4 363.2L247.4 420.1Z" fill="#712761" stroke="#712761"></path><path d="M247.4 420.1L134.3 422.1L178.3 498.9Z" fill="#ce3a53" stroke="#ce3a53"></path><path d="M178.3 498.9L223.4 573.8L244.4 511.9Z" fill="#271e48" stroke="#271e48"></path><path d="M244.4 511.9L223.4 573.8L284.6 507.9Z" fill="#ba305b" stroke="#ba305b"></path><path d="M284.6 507.9L367.7 503.9L328.6 463.1Z" fill="#df4848" stroke="#df4848"></path><path d="M368.7 589.8L367.7 503.9L284.6 507.9Z" fill="#a32a61" stroke="#a32a61"></path><path d="M328.6 463.1L332.6 350.2L247.4 420.1Z" fill="#8b2863" stroke="#8b2863"></path><path d="M367.7 503.9L379.7 437.1L328.6 463.1Z" fill="#3f2354" stroke="#3f2354"></path><path d="M164.3 363.2L134.3 422.1L247.4 420.1Z" fill="#271e48" stroke="#271e48"></path><path d="M379.7 437.1L332.6 350.2L328.6 463.1Z" fill="#00112c" stroke="#00112c"></path><path d="M237.4 290.4L164.3 363.2L250.4 363.2Z" fill="#a32a61" stroke="#a32a61"></path><path d="M250.4 363.2L164.3 363.2L247.4 420.1Z" fill="#712761" stroke="#712761"></path><path d="M223.4 573.8L312.6 612.8L284.6 507.9Z" fill="#271e48" stroke="#271e48"></path><path d="M55.1 371.2L100.1 456.1L134.3 422.1Z" fill="#ba305b" stroke="#ba305b"></path><path d="M134.3 422.1L100.1 456.1L178.3 498.9Z" fill="#a32a61" stroke="#a32a61"></path><path d="M178.3 498.9L129.3 592.8L223.4 573.8Z" fill="#3f2354" stroke="#3f2354"></path><path d="M312.6 612.8L368.7 589.8L284.6 507.9Z" fill="#271e48" stroke="#271e48"></path><path d="M367.7 503.9L457.9 520.9L379.7 437.1Z" fill="#8b2863" stroke="#8b2863"></path><path d="M100.1 456.1L100.1 505.9L178.3 498.9Z" fill="#11193b" stroke="#11193b"></path><path d="M316.6 296.4L237.4 290.4L250.4 363.2Z" fill="#712761" stroke="#712761"></path><path d="M382.7 309.4L316.6 296.4L332.6 350.2Z" fill="#8b2863" stroke="#8b2863"></path><path d="M332.6 350.2L316.6 296.4L250.4 363.2Z" fill="#df4848" stroke="#df4848"></path><path d="M100.1 505.9L129.3 592.8L178.3 498.9Z" fill="#11193b" stroke="#11193b"></path><path d="M223.4 573.8L249.4 680.6L312.6 612.8Z" fill="#ce3a53" stroke="#ce3a53"></path><path d="M479.9 435.1L407.7 344.2L379.7 437.1Z" fill="#ba305b" stroke="#ba305b"></path><path d="M379.7 437.1L407.7 344.2L332.6 350.2Z" fill="#ce3a53" stroke="#ce3a53"></path><path d="M407.7 344.2L382.7 309.4L332.6 350.2Z" fill="#ba305b" stroke="#ba305b"></path><path d="M440.9 571.8L457.9 520.9L367.7 503.9Z" fill="#11193b" stroke="#11193b"></path><path d="M448.9 647.6L440.9 571.8L368.7 589.8Z" fill="#00112c" stroke="#00112c"></path><path d="M368.7 589.8L440.9 571.8L367.7 503.9Z" fill="#ba305b" stroke="#ba305b"></path><path d="M150.3 686.6L249.4 680.6L223.4 573.8Z" fill="#ce3a53" stroke="#ce3a53"></path><path d="M312.6 612.8L367.7 676.6L368.7 589.8Z" fill="#df4848" stroke="#df4848"></path><path d="M249.4 680.6L307.6 680.6L312.6 612.8Z" fill="#00112c" stroke="#00112c"></path><path d="M457.9 520.9L479.9 435.1L379.7 437.1Z" fill="#df4848" stroke="#df4848"></path><path d="M407.7 344.2L459.9 315.4L382.7 309.4Z" fill="#a32a61" stroke="#a32a61"></path><path d="M100.1 505.9L68.1 580.8L129.3 592.8Z" fill="#ba305b" stroke="#ba305b"></path><path d="M129.3 592.8L150.3 686.6L223.4 573.8Z" fill="#3f2354" stroke="#3f2354"></path><path d="M0 503.9L68.1 580.8L100.1 505.9Z" fill="#271e48" stroke="#271e48"></path><path d="M164.3 363.2L55.1 371.2L134.3 422.1Z" fill="#712761" stroke="#712761"></path><path d="M100.1 456.1L0 503.9L100.1 505.9Z" fill="#ba305b" stroke="#ba305b"></path><path d="M131.3 279.4L55.1 371.2L164.3 363.2Z" fill="#ce3a53" stroke="#ce3a53"></path><path d="M225.4 219.5L131.3 279.4L237.4 290.4Z" fill="#712761" stroke="#712761"></path><path d="M237.4 290.4L131.3 279.4L164.3 363.2Z" fill="#712761" stroke="#712761"></path><path d="M307.6 680.6L367.7 676.6L312.6 612.8Z" fill="#57255c" stroke="#57255c"></path><path d="M479.9 435.1L472.9 355.2L407.7 344.2Z" fill="#a32a61" stroke="#a32a61"></path><path d="M57.1 639.6L150.3 686.6L129.3 592.8Z" fill="#df4848" stroke="#df4848"></path><path d="M323.6 755.5L367.7 676.6L307.6 680.6Z" fill="#00112c" stroke="#00112c"></path><path d="M289.6 198.5L237.4 290.4L316.6 296.4Z" fill="#11193b" stroke="#11193b"></path><path d="M289.6 198.5L225.4 219.5L237.4 290.4Z" fill="#ba305b" stroke="#ba305b"></path><path d="M289.6 198.5L316.6 296.4L394.7 199.5Z" fill="#ba305b" stroke="#ba305b"></path><path d="M472.9 355.2L459.9 315.4L407.7 344.2Z" fill="#57255c" stroke="#57255c"></path><path d="M540 597.8L540 510.9L457.9 520.9Z" fill="#57255c" stroke="#57255c"></path><path d="M540 510.9L540 437.1L479.9 435.1Z" fill="#df4848" stroke="#df4848"></path><path d="M367.7 676.6L448.9 647.6L368.7 589.8Z" fill="#271e48" stroke="#271e48"></path><path d="M0 344.2L0 434.1L55.1 371.2Z" fill="#11193b" stroke="#11193b"></path><path d="M55.1 371.2L0 434.1L100.1 456.1Z" fill="#00112c" stroke="#00112c"></path><path d="M0 434.1L0 503.9L100.1 456.1Z" fill="#00112c" stroke="#00112c"></path><path d="M68.1 580.8L57.1 639.6L129.3 592.8Z" fill="#712761" stroke="#712761"></path><path d="M0 580.8L57.1 639.6L68.1 580.8Z" fill="#712761" stroke="#712761"></path><path d="M394.7 199.5L316.6 296.4L382.7 309.4Z" fill="#00112c" stroke="#00112c"></path><path d="M225.4 219.5L139.3 219.5L131.3 279.4Z" fill="#00112c" stroke="#00112c"></path><path d="M131.3 279.4L65.1 270.4L55.1 371.2Z" fill="#ba305b" stroke="#ba305b"></path><path d="M242.4 163.7L139.3 219.5L225.4 219.5Z" fill="#df4848" stroke="#df4848"></path><path d="M97.1 234.5L65.1 270.4L131.3 279.4Z" fill="#3f2354" stroke="#3f2354"></path><path d="M57.1 639.6L133.3 714.5L150.3 686.6Z" fill="#271e48" stroke="#271e48"></path><path d="M150.3 686.6L221.4 755.5L249.4 680.6Z" fill="#8b2863" stroke="#8b2863"></path><path d="M323.6 755.5L395.7 719.5L367.7 676.6Z" fill="#ce3a53" stroke="#ce3a53"></path><path d="M540 510.9L479.9 435.1L457.9 520.9Z" fill="#00112c" stroke="#00112c"></path><path d="M479.9 435.1L540 353.2L472.9 355.2Z" fill="#271e48" stroke="#271e48"></path><path d="M472.9 355.2L540 353.2L459.9 315.4Z" fill="#ce3a53" stroke="#ce3a53"></path><path d="M540 597.8L457.9 520.9L440.9 571.8Z" fill="#8b2863" stroke="#8b2863"></path><path d="M139.3 219.5L97.1 234.5L131.3 279.4Z" fill="#11193b" stroke="#11193b"></path><path d="M0 503.9L0 580.8L68.1 580.8Z" fill="#a32a61" stroke="#a32a61"></path><path d="M323.6 755.5L307.6 680.6L249.4 680.6Z" fill="#11193b" stroke="#11193b"></path><path d="M367.7 676.6L395.7 719.5L448.9 647.6Z" fill="#a32a61" stroke="#a32a61"></path><path d="M0 307.4L0 344.2L55.1 371.2Z" fill="#271e48" stroke="#271e48"></path><path d="M133.3 714.5L221.4 755.5L150.3 686.6Z" fill="#271e48" stroke="#271e48"></path><path d="M221.4 755.5L323.6 755.5L249.4 680.6Z" fill="#3f2354" stroke="#3f2354"></path><path d="M459.9 219.5L394.7 199.5L382.7 309.4Z" fill="#8b2863" stroke="#8b2863"></path><path d="M459.9 219.5L382.7 309.4L459.9 315.4Z" fill="#a32a61" stroke="#a32a61"></path><path d="M540 437.1L540 353.2L479.9 435.1Z" fill="#df4848" stroke="#df4848"></path><path d="M394.7 199.5L284.6 164.7L289.6 198.5Z" fill="#271e48" stroke="#271e48"></path><path d="M289.6 198.5L242.4 163.7L225.4 219.5Z" fill="#8b2863" stroke="#8b2863"></path><path d="M139.3 219.5L83.1 152.7L97.1 234.5Z" fill="#8b2863" stroke="#8b2863"></path><path d="M284.6 164.7L242.4 163.7L289.6 198.5Z" fill="#11193b" stroke="#11193b"></path><path d="M0 196.5L0 307.4L65.1 270.4Z" fill="#57255c" stroke="#57255c"></path><path d="M65.1 270.4L0 307.4L55.1 371.2Z" fill="#00112c" stroke="#00112c"></path><path d="M540 668.6L540 597.8L448.9 647.6Z" fill="#57255c" stroke="#57255c"></path><path d="M448.9 647.6L540 597.8L440.9 571.8Z" fill="#11193b" stroke="#11193b"></path><path d="M540 286.4L459.9 219.5L459.9 315.4Z" fill="#a32a61" stroke="#a32a61"></path><path d="M394.7 199.5L408.7 156.7L284.6 164.7Z" fill="#57255c" stroke="#57255c"></path><path d="M57.1 639.6L86.1 735.5L133.3 714.5Z" fill="#57255c" stroke="#57255c"></path><path d="M142.3 823.3L214.4 830.3L221.4 755.5Z" fill="#00112c" stroke="#00112c"></path><path d="M0 673.6L86.1 735.5L57.1 639.6Z" fill="#ba305b" stroke="#ba305b"></path><path d="M0 580.8L0 673.6L57.1 639.6Z" fill="#3f2354" stroke="#3f2354"></path><path d="M540 353.2L540 286.4L459.9 315.4Z" fill="#ce3a53" stroke="#ce3a53"></path><path d="M449.9 163.7L394.7 199.5L459.9 219.5Z" fill="#8b2863" stroke="#8b2863"></path><path d="M449.9 163.7L408.7 156.7L394.7 199.5Z" fill="#a32a61" stroke="#a32a61"></path><path d="M252.4 83.8L140.3 128.7L242.4 163.7Z" fill="#ce3a53" stroke="#ce3a53"></path><path d="M476.9 736.5L540 668.6L448.9 647.6Z" fill="#ce3a53" stroke="#ce3a53"></path><path d="M476.9 736.5L448.9 647.6L395.7 719.5Z" fill="#ce3a53" stroke="#ce3a53"></path><path d="M405.7 790.3L476.9 736.5L395.7 719.5Z" fill="#271e48" stroke="#271e48"></path><path d="M214.4 830.3L285.6 816.3L221.4 755.5Z" fill="#ce3a53" stroke="#ce3a53"></path><path d="M221.4 755.5L285.6 816.3L323.6 755.5Z" fill="#a32a61" stroke="#a32a61"></path><path d="M323.6 755.5L405.7 790.3L395.7 719.5Z" fill="#00112c" stroke="#00112c"></path><path d="M285.6 816.3L405.7 790.3L323.6 755.5Z" fill="#271e48" stroke="#271e48"></path><path d="M540 163.7L449.9 163.7L459.9 219.5Z" fill="#11193b" stroke="#11193b"></path><path d="M252.4 83.8L242.4 163.7L284.6 164.7Z" fill="#712761" stroke="#712761"></path><path d="M242.4 163.7L140.3 128.7L139.3 219.5Z" fill="#df4848" stroke="#df4848"></path><path d="M97.1 234.5L0 196.5L65.1 270.4Z" fill="#ce3a53" stroke="#ce3a53"></path><path d="M140.3 128.7L83.1 152.7L139.3 219.5Z" fill="#00112c" stroke="#00112c"></path><path d="M142.3 823.3L221.4 755.5L133.3 714.5Z" fill="#df4848" stroke="#df4848"></path><path d="M142.3 823.3L133.3 714.5L86.1 735.5Z" fill="#57255c" stroke="#57255c"></path><path d="M540 286.4L540 225.5L459.9 219.5Z" fill="#8b2863" stroke="#8b2863"></path><path d="M83.1 152.7L0 196.5L97.1 234.5Z" fill="#271e48" stroke="#271e48"></path><path d="M62.1 830.3L142.3 823.3L86.1 735.5Z" fill="#11193b" stroke="#11193b"></path><path d="M302.6 81.8L252.4 83.8L284.6 164.7Z" fill="#a32a61" stroke="#a32a61"></path><path d="M302.6 81.8L284.6 164.7L408.7 156.7Z" fill="#11193b" stroke="#11193b"></path><path d="M0 673.6L0 751.5L86.1 735.5Z" fill="#8b2863" stroke="#8b2863"></path><path d="M394.7 67.8L302.6 81.8L408.7 156.7Z" fill="#3f2354" stroke="#3f2354"></path><path d="M476.9 736.5L540 744.5L540 668.6Z" fill="#271e48" stroke="#271e48"></path><path d="M483.9 792.3L540 744.5L476.9 736.5Z" fill="#57255c" stroke="#57255c"></path><path d="M471.9 887.2L483.9 792.3L405.7 790.3Z" fill="#ba305b" stroke="#ba305b"></path><path d="M405.7 790.3L483.9 792.3L476.9 736.5Z" fill="#a32a61" stroke="#a32a61"></path><path d="M393.7 877.2L405.7 790.3L285.6 816.3Z" fill="#712761" stroke="#712761"></path><path d="M70.1 69.8L0 148.7L83.1 152.7Z" fill="#df4848" stroke="#df4848"></path><path d="M83.1 152.7L0 148.7L0 196.5Z" fill="#a32a61" stroke="#a32a61"></path><path d="M70.1 69.8L83.1 152.7L140.3 128.7Z" fill="#ba305b" stroke="#ba305b"></path><path d="M540 225.5L540 163.7L459.9 219.5Z" fill="#11193b" stroke="#11193b"></path><path d="M449.9 163.7L394.7 67.8L408.7 156.7Z" fill="#57255c" stroke="#57255c"></path><path d="M237.4 902.2L305.6 878.2L285.6 816.3Z" fill="#ce3a53" stroke="#ce3a53"></path><path d="M237.4 902.2L285.6 816.3L214.4 830.3Z" fill="#ba305b" stroke="#ba305b"></path><path d="M0 751.5L62.1 830.3L86.1 735.5Z" fill="#3f2354" stroke="#3f2354"></path><path d="M153.3 906.2L237.4 902.2L214.4 830.3Z" fill="#8b2863" stroke="#8b2863"></path><path d="M486.9 50.8L394.7 67.8L449.9 163.7Z" fill="#00112c" stroke="#00112c"></path><path d="M210.4 0L138.3 61.8L252.4 83.8Z" fill="#3f2354" stroke="#3f2354"></path><path d="M210.4 0L252.4 83.8L318.6 0Z" fill="#3f2354" stroke="#3f2354"></path><path d="M252.4 83.8L138.3 61.8L140.3 128.7Z" fill="#3f2354" stroke="#3f2354"></path><path d="M0 751.5L0 808.3L62.1 830.3Z" fill="#00112c" stroke="#00112c"></path><path d="M305.6 878.2L393.7 877.2L285.6 816.3Z" fill="#a32a61" stroke="#a32a61"></path><path d="M483.9 792.3L540 829.3L540 744.5Z" fill="#ba305b" stroke="#ba305b"></path><path d="M153.3 906.2L142.3 823.3L82.1 903.2Z" fill="#271e48" stroke="#271e48"></path><path d="M153.3 906.2L214.4 830.3L142.3 823.3Z" fill="#df4848" stroke="#df4848"></path><path d="M305.6 878.2L367.7 960L393.7 877.2Z" fill="#df4848" stroke="#df4848"></path><path d="M138.3 61.8L70.1 69.8L140.3 128.7Z" fill="#271e48" stroke="#271e48"></path><path d="M82.1 903.2L142.3 823.3L62.1 830.3Z" fill="#3f2354" stroke="#3f2354"></path><path d="M471.9 887.2L540 829.3L483.9 792.3Z" fill="#ba305b" stroke="#ba305b"></path><path d="M318.6 0L252.4 83.8L302.6 81.8Z" fill="#a32a61" stroke="#a32a61"></path><path d="M138.3 61.8L90.1 0L70.1 69.8Z" fill="#57255c" stroke="#57255c"></path><path d="M402.7 0L318.6 0L394.7 67.8Z" fill="#271e48" stroke="#271e48"></path><path d="M394.7 67.8L318.6 0L302.6 81.8Z" fill="#ba305b" stroke="#ba305b"></path><path d="M452.9 960L471.9 887.2L393.7 877.2Z" fill="#11193b" stroke="#11193b"></path><path d="M393.7 877.2L471.9 887.2L405.7 790.3Z" fill="#271e48" stroke="#271e48"></path><path d="M0 894.2L82.1 903.2L62.1 830.3Z" fill="#271e48" stroke="#271e48"></path><path d="M540 78.8L486.9 50.8L449.9 163.7Z" fill="#8b2863" stroke="#8b2863"></path><path d="M0 0L0 68.8L70.1 69.8Z" fill="#00112c" stroke="#00112c"></path><path d="M70.1 69.8L0 68.8L0 148.7Z" fill="#57255c" stroke="#57255c"></path><path d="M540 163.7L540 78.8L449.9 163.7Z" fill="#712761" stroke="#712761"></path><path d="M210.4 0L146.3 0L138.3 61.8Z" fill="#57255c" stroke="#57255c"></path><path d="M448.9 0L394.7 67.8L486.9 50.8Z" fill="#57255c" stroke="#57255c"></path><path d="M448.9 0L402.7 0L394.7 67.8Z" fill="#a32a61" stroke="#a32a61"></path><path d="M153.3 906.2L215.4 960L237.4 902.2Z" fill="#00112c" stroke="#00112c"></path><path d="M237.4 902.2L318.6 960L305.6 878.2Z" fill="#271e48" stroke="#271e48"></path><path d="M150.3 960L215.4 960L153.3 906.2Z" fill="#00112c" stroke="#00112c"></path><path d="M146.3 0L90.1 0L138.3 61.8Z" fill="#ba305b" stroke="#ba305b"></path><path d="M215.4 960L318.6 960L237.4 902.2Z" fill="#df4848" stroke="#df4848"></path><path d="M0 808.3L0 894.2L62.1 830.3Z" fill="#a32a61" stroke="#a32a61"></path><path d="M99.1 960L150.3 960L153.3 906.2Z" fill="#ba305b" stroke="#ba305b"></path><path d="M540 0L448.9 0L486.9 50.8Z" fill="#ce3a53" stroke="#ce3a53"></path><path d="M318.6 960L367.7 960L305.6 878.2Z" fill="#ce3a53" stroke="#ce3a53"></path><path d="M99.1 960L153.3 906.2L82.1 903.2Z" fill="#00112c" stroke="#00112c"></path><path d="M540 960L540 901.2L471.9 887.2Z" fill="#271e48" stroke="#271e48"></path><path d="M471.9 887.2L540 901.2L540 829.3Z" fill="#a32a61" stroke="#a32a61"></path><path d="M0 960L99.1 960L82.1 903.2Z" fill="#271e48" stroke="#271e48"></path><path d="M367.7 960L452.9 960L393.7 877.2Z" fill="#271e48" stroke="#271e48"></path><path d="M90.1 0L0 0L70.1 69.8Z" fill="#712761" stroke="#712761"></path><path d="M540 78.8L540 0L486.9 50.8Z" fill="#ba305b" stroke="#ba305b"></path><path d="M0 894.2L0 960L82.1 903.2Z" fill="#271e48" stroke="#271e48"></path><path d="M452.9 960L540 960L471.9 887.2Z" fill="#ce3a53" stroke="#ce3a53"></path></g></svg>