<svg xmlns="http://www.w3.org/2000/svg" version="1.1" xmlns:xlink="http://www.w3.org/1999/xlink" xmlns:svgjs="http://svgjs.com/svgjs" width="600" height="800" preserveAspectRatio="none" viewBox="0 0 500 800"><g mask="url(&quot;#SvgjsMask1035&quot;)" fill="none"><rect width="500" height="800" x="0" y="0" fill="rgba(191, 52, 94, 1)"></rect><path d="M0,184.238C35.025,181.498,69.63,173.29,98.515,153.292C126.812,133.701,145.356,104.209,160.341,73.225C175.604,41.666,190.945,7.96,185.556,-26.679C180.19,-61.172,149.528,-83.99,131.257,-113.735C108.617,-150.592,107.204,-211.659,65.312,-222.431C22.941,-233.326,-9.069,-181.602,-46.842,-159.529C-74.514,-143.359,-103.541,-131.882,-127.005,-110.05C-152.793,-86.055,-177.552,-60.472,-189.076,-27.185C-202.094,10.417,-211.123,52.709,-196.111,89.561C-180.929,126.831,-145.188,152.028,-108.946,169.524C-75.263,185.785,-37.289,187.155,0,184.238" fill="#992a4b"></path><path d="M500 1068.606C561.701 1076.254 627.17 1112.464 682.141 1083.417 737.1510000000001 1054.349 761.235 985.683 772.671 924.525 782.818 870.26 755.932 818.581 741.6320000000001 765.259 729.146 718.698 721.31 671.593 694.159 631.76 664.575 588.358 625.554 553.895 579.88 527.9549999999999 524.091 496.27 464.133 450.328 401.855 465.75 339.619 481.162 314.447 554.402 273.58000000000004 603.806 233.788 651.91 180.88799999999998 691.439 165.18099999999998 751.86 148.66500000000002 815.392 150.627 887.9639999999999 185.20600000000002 943.762 218.745 997.8820000000001 285.551 1018.124 344.736 1041.596 394.577 1061.363 446.789 1062.01 500 1068.606" fill="#d05379"></path></g><defs><mask id="SvgjsMask1035"><rect width="500" height="800" fill="#ffffff"></rect></mask></defs></svg>