<svg id="visual" viewBox="0 0 600 1000" width="600" height="1000" xmlns="http://www.w3.org/2000/svg" xmlns:xlink="http://www.w3.org/1999/xlink" version="1.1"><rect x="0" y="0" width="600" height="1000" fill="#002233"></rect><path d="M208 0L201.8 23.8C195.7 47.7 183.3 95.3 171.3 143C159.3 190.7 147.7 238.3 134.2 286C120.7 333.7 105.3 381.3 95.5 428.8C85.7 476.3 81.3 523.7 93.2 571.2C105 618.7 133 666.3 140.3 714C147.7 761.7 134.3 809.3 135.8 857C137.3 904.7 153.7 952.3 161.8 976.2L170 1000L0 1000L0 976.2C0 952.3 0 904.7 0 857C0 809.3 0 761.7 0 714C0 666.3 0 618.7 0 571.2C0 523.7 0 476.3 0 428.8C0 381.3 0 333.7 0 286C0 238.3 0 190.7 0 143C0 95.3 0 47.7 0 23.8L0 0Z" fill="#DF4848" stroke-linecap="round" stroke-linejoin="miter"></path></svg>