<svg id="visual" viewBox="0 0 960 540" width="960" height="540" xmlns="http://www.w3.org/2000/svg" xmlns:xlink="http://www.w3.org/1999/xlink" version="1.1"><rect x="0" y="0" width="960" height="540" fill="#FFEEFF"></rect><defs><linearGradient id="grad1_0" x1="43.8%" y1="0%" x2="100%" y2="100%"><stop offset="14.444444444444446%" stop-color="#df4848" stop-opacity="1"></stop><stop offset="85.55555555555554%" stop-color="#df4848" stop-opacity="1"></stop></linearGradient></defs><defs><linearGradient id="grad1_1" x1="43.8%" y1="0%" x2="100%" y2="100%"><stop offset="14.444444444444446%" stop-color="#df4848" stop-opacity="1"></stop><stop offset="85.55555555555554%" stop-color="#f57e99" stop-opacity="1"></stop></linearGradient></defs><defs><linearGradient id="grad1_2" x1="43.8%" y1="0%" x2="100%" y2="100%"><stop offset="14.444444444444446%" stop-color="#fab8d8" stop-opacity="1"></stop><stop offset="85.55555555555554%" stop-color="#f57e99" stop-opacity="1"></stop></linearGradient></defs><defs><linearGradient id="grad1_3" x1="43.8%" y1="0%" x2="100%" y2="100%"><stop offset="14.444444444444446%" stop-color="#fab8d8" stop-opacity="1"></stop><stop offset="85.55555555555554%" stop-color="#ffeeff" stop-opacity="1"></stop></linearGradient></defs><defs><linearGradient id="grad2_0" x1="0%" y1="0%" x2="56.3%" y2="100%"><stop offset="14.444444444444446%" stop-color="#df4848" stop-opacity="1"></stop><stop offset="85.55555555555554%" stop-color="#df4848" stop-opacity="1"></stop></linearGradient></defs><defs><linearGradient id="grad2_1" x1="0%" y1="0%" x2="56.3%" y2="100%"><stop offset="14.444444444444446%" stop-color="#f57e99" stop-opacity="1"></stop><stop offset="85.55555555555554%" stop-color="#df4848" stop-opacity="1"></stop></linearGradient></defs><defs><linearGradient id="grad2_2" x1="0%" y1="0%" x2="56.3%" y2="100%"><stop offset="14.444444444444446%" stop-color="#f57e99" stop-opacity="1"></stop><stop offset="85.55555555555554%" stop-color="#fab8d8" stop-opacity="1"></stop></linearGradient></defs><defs><linearGradient id="grad2_3" x1="0%" y1="0%" x2="56.3%" y2="100%"><stop offset="14.444444444444446%" stop-color="#ffeeff" stop-opacity="1"></stop><stop offset="85.55555555555554%" stop-color="#fab8d8" stop-opacity="1"></stop></linearGradient></defs><g transform="translate(960, 0)"><path d="M0 297C-33.6 276.2 -67.1 255.3 -99.1 239.3C-131.1 223.3 -161.6 212.1 -193 193C-224.5 174 -256.9 147.1 -274.4 113.7C-291.9 80.2 -294.4 40.1 -297 0L0 0Z" fill="#fbd3ef"></path><path d="M0 222.8C-25.2 207.1 -50.3 191.5 -74.3 179.5C-98.3 167.4 -121.2 159.1 -144.8 144.8C-168.4 130.5 -192.7 110.4 -205.8 85.2C-218.9 60.1 -220.8 30.1 -222.7 0L0 0Z" fill="#f99bbb"></path><path d="M0 148.5C-16.8 138.1 -33.6 127.7 -49.6 119.6C-65.6 111.6 -80.8 106 -96.5 96.5C-112.2 87 -128.5 73.6 -137.2 56.8C-145.9 40.1 -147.2 20 -148.5 0L0 0Z" fill="#ed6272"></path><path d="M0 74.3C-8.4 69 -16.8 63.8 -24.8 59.8C-32.8 55.8 -40.4 53 -48.3 48.3C-56.1 43.5 -64.2 36.8 -68.6 28.4C-73 20 -73.6 10 -74.2 0L0 0Z" fill="#df4848"></path></g><g transform="translate(0, 540)"><path d="M0 -297C40.4 -293.8 80.9 -290.5 113.3 -273.5C145.7 -256.4 170.1 -225.6 198 -198C225.9 -170.4 257.3 -146.1 274.4 -113.7C291.5 -81.2 294.2 -40.6 297 0L0 0Z" fill="#fbd3ef"></path><path d="M0 -222.7C30.3 -220.3 60.6 -217.9 85 -205.1C109.3 -192.3 127.6 -169.2 148.5 -148.5C169.4 -127.8 193 -109.6 205.8 -85.2C218.6 -60.9 220.7 -30.5 222.8 0L0 0Z" fill="#f99bbb"></path><path d="M0 -148.5C20.2 -146.9 40.4 -145.3 56.6 -136.7C72.8 -128.2 85 -112.8 99 -99C112.9 -85.2 128.7 -73.1 137.2 -56.8C145.7 -40.6 147.1 -20.3 148.5 0L0 0Z" fill="#ed6272"></path><path d="M0 -74.2C10.1 -73.4 20.2 -72.6 28.3 -68.4C36.4 -64.1 42.5 -56.4 49.5 -49.5C56.5 -42.6 64.3 -36.5 68.6 -28.4C72.9 -20.3 73.6 -10.2 74.3 0L0 0Z" fill="#df4848"></path></g></svg>