<svg id="visual" viewBox="0 0 1200 900" width="1200" height="900" xmlns="http://www.w3.org/2000/svg" xmlns:xlink="http://www.w3.org/1999/xlink" version="1.1"><rect x="0" y="0" width="1200" height="900" fill="#4400a6"></rect><defs><linearGradient id="grad1_0" x1="25%" y1="0%" x2="100%" y2="100%"><stop offset="23.333333333333336%" stop-color="#df4848" stop-opacity="1"></stop><stop offset="76.66666666666666%" stop-color="#df4848" stop-opacity="1"></stop></linearGradient></defs><defs><linearGradient id="grad1_1" x1="25%" y1="0%" x2="100%" y2="100%"><stop offset="23.333333333333336%" stop-color="#df4848" stop-opacity="1"></stop><stop offset="76.66666666666666%" stop-color="#ce0062" stop-opacity="1"></stop></linearGradient></defs><defs><linearGradient id="grad1_2" x1="25%" y1="0%" x2="100%" y2="100%"><stop offset="23.333333333333336%" stop-color="#a30084" stop-opacity="1"></stop><stop offset="76.66666666666666%" stop-color="#ce0062" stop-opacity="1"></stop></linearGradient></defs><defs><linearGradient id="grad1_3" x1="25%" y1="0%" x2="100%" y2="100%"><stop offset="23.333333333333336%" stop-color="#a30084" stop-opacity="1"></stop><stop offset="76.66666666666666%" stop-color="#4400a6" stop-opacity="1"></stop></linearGradient></defs><defs><linearGradient id="grad2_0" x1="0%" y1="0%" x2="75%" y2="100%"><stop offset="23.333333333333336%" stop-color="#df4848" stop-opacity="1"></stop><stop offset="76.66666666666666%" stop-color="#df4848" stop-opacity="1"></stop></linearGradient></defs><defs><linearGradient id="grad2_1" x1="0%" y1="0%" x2="75%" y2="100%"><stop offset="23.333333333333336%" stop-color="#ce0062" stop-opacity="1"></stop><stop offset="76.66666666666666%" stop-color="#df4848" stop-opacity="1"></stop></linearGradient></defs><defs><linearGradient id="grad2_2" x1="0%" y1="0%" x2="75%" y2="100%"><stop offset="23.333333333333336%" stop-color="#ce0062" stop-opacity="1"></stop><stop offset="76.66666666666666%" stop-color="#a30084" stop-opacity="1"></stop></linearGradient></defs><defs><linearGradient id="grad2_3" x1="0%" y1="0%" x2="75%" y2="100%"><stop offset="23.333333333333336%" stop-color="#4400a6" stop-opacity="1"></stop><stop offset="76.66666666666666%" stop-color="#a30084" stop-opacity="1"></stop></linearGradient></defs><g transform="translate(1200, 0)"><path d="M0 412.5C-44.8 382.7 -89.5 352.8 -138.9 335.4C-188.3 317.9 -242.3 312.9 -285.7 285.7C-329 258.5 -361.7 209.2 -381.1 157.9C-400.5 106.6 -406.5 53.3 -412.5 0L0 0Z" fill="#7f0096"></path><path d="M0 309.4C-33.6 287 -67.1 264.6 -104.2 251.5C-141.2 238.4 -181.7 234.6 -214.3 214.3C-246.8 193.9 -271.3 156.9 -285.8 118.4C-300.3 79.9 -304.9 40 -309.4 0L0 0Z" fill="#bd0072"></path><path d="M0 206.3C-22.4 191.3 -44.8 176.4 -69.5 167.7C-94.2 159 -121.2 156.4 -142.8 142.8C-164.5 129.2 -180.9 104.6 -190.6 78.9C-200.2 53.3 -203.2 26.6 -206.2 0L0 0Z" fill="#d92453"></path><path d="M0 103.1C-11.2 95.7 -22.4 88.2 -34.7 83.8C-47.1 79.5 -60.6 78.2 -71.4 71.4C-82.3 64.6 -90.4 52.3 -95.3 39.5C-100.1 26.6 -101.6 13.3 -103.1 0L0 0Z" fill="#df4848"></path></g><g transform="translate(0, 900)"><path d="M0 -412.5C54.7 -399 109.5 -385.5 147.3 -355.7C185.2 -325.9 206.2 -279.8 247.5 -247.5C288.7 -215.2 350.2 -196.8 381.1 -157.9C412 -118.9 412.2 -59.5 412.5 0L0 0Z" fill="#7f0096"></path><path d="M0 -309.4C41 -299.3 82.1 -289.1 110.5 -266.8C138.9 -244.4 154.7 -209.8 185.6 -185.6C216.6 -161.4 262.7 -147.6 285.8 -118.4C309 -89.2 309.2 -44.6 309.4 0L0 0Z" fill="#bd0072"></path><path d="M0 -206.2C27.4 -199.5 54.7 -192.8 73.7 -177.8C92.6 -162.9 103.1 -139.9 123.7 -123.7C144.4 -107.6 175.1 -98.4 190.6 -78.9C206 -59.5 206.1 -29.7 206.3 0L0 0Z" fill="#d92453"></path><path d="M0 -103.1C13.7 -99.8 27.4 -96.4 36.8 -88.9C46.3 -81.5 51.6 -69.9 61.9 -61.9C72.2 -53.8 87.6 -49.2 95.3 -39.5C103 -29.7 103.1 -14.9 103.1 0L0 0Z" fill="#df4848"></path></g></svg>