<svg id="visual" viewBox="0 0 1200 800" width="1200" height="800" xmlns="http://www.w3.org/2000/svg" xmlns:xlink="http://www.w3.org/1999/xlink" version="1.1"><rect x="0" y="0" width="1200" height="400" fill="#FFF"></rect><defs><linearGradient id="grad1_0" x1="66.7%" y1="0%" x2="100%" y2="100%"><stop offset="-10%" stop-color="#df4848" stop-opacity="1"></stop><stop offset="110%" stop-color="#df4848" stop-opacity="1"></stop></linearGradient></defs><defs><linearGradient id="grad1_1" x1="66.7%" y1="0%" x2="100%" y2="100%"><stop offset="-10%" stop-color="#df4848" stop-opacity="1"></stop><stop offset="110%" stop-color="#f38a81" stop-opacity="1"></stop></linearGradient></defs><defs><linearGradient id="grad1_2" x1="66.7%" y1="0%" x2="100%" y2="100%"><stop offset="-10%" stop-color="#fec5be" stop-opacity="1"></stop><stop offset="110%" stop-color="#f38a81" stop-opacity="1"></stop></linearGradient></defs><defs><linearGradient id="grad1_3" x1="66.7%" y1="0%" x2="100%" y2="100%"><stop offset="-10%" stop-color="#fec5be" stop-opacity="1"></stop><stop offset="110%" stop-color="#ffffff" stop-opacity="1"></stop></linearGradient></defs><defs><linearGradient id="grad2_0" x1="0%" y1="0%" x2="33.3%" y2="100%"><stop offset="-10%" stop-color="#df4848" stop-opacity="1"></stop><stop offset="110%" stop-color="#df4848" stop-opacity="1"></stop></linearGradient></defs><defs><linearGradient id="grad2_1" x1="0%" y1="0%" x2="33.3%" y2="100%"><stop offset="-10%" stop-color="#f38a81" stop-opacity="1"></stop><stop offset="110%" stop-color="#df4848" stop-opacity="1"></stop></linearGradient></defs><defs><linearGradient id="grad2_2" x1="0%" y1="0%" x2="33.3%" y2="100%"><stop offset="-10%" stop-color="#f38a81" stop-opacity="1"></stop><stop offset="110%" stop-color="#fec5be" stop-opacity="1"></stop></linearGradient></defs><defs><linearGradient id="grad2_3" x1="0%" y1="0%" x2="33.3%" y2="100%"><stop offset="-10%" stop-color="#ffffff" stop-opacity="1"></stop><stop offset="110%" stop-color="#fec5be" stop-opacity="1"></stop></linearGradient></defs><g transform="translate(1200, 0)"><path d="M0 300C-23.9 288.6 -47.8 277.2 -72 268.5C-96.1 259.9 -120.5 254 -139 240.8C-157.5 227.5 -170.1 206.8 -192.3 192.3C-214.6 177.9 -246.5 169.6 -259.8 150C-273.1 130.4 -267.8 99.6 -271.4 72.7C-275 45.8 -287.5 22.9 -300 0L0 0Z" fill="#ffe2de"></path><path d="M0 225C-17.9 216.4 -35.9 207.9 -54 201.4C-72.1 194.9 -90.4 190.5 -104.2 180.6C-118.1 170.6 -127.6 155.1 -144.2 144.2C-160.9 133.4 -184.9 127.2 -194.9 112.5C-204.8 97.8 -200.9 74.7 -203.6 54.5C-206.3 34.4 -215.6 17.2 -225 0L0 0Z" fill="#f9a79f"></path><path d="M0 150C-12 144.3 -23.9 138.6 -36 134.3C-48.1 129.9 -60.3 127 -69.5 120.4C-78.7 113.7 -85 103.4 -96.2 96.2C-107.3 88.9 -123.2 84.8 -129.9 75C-136.6 65.2 -133.9 49.8 -135.7 36.4C-137.5 22.9 -143.8 11.5 -150 0L0 0Z" fill="#ea6b64"></path><path d="M0 75C-6 72.1 -12 69.3 -18 67.1C-24 65 -30.1 63.5 -34.7 60.2C-39.4 56.9 -42.5 51.7 -48.1 48.1C-53.6 44.5 -61.6 42.4 -65 37.5C-68.3 32.6 -67 24.9 -67.9 18.2C-68.8 11.5 -71.9 5.7 -75 0L0 0Z" fill="#df4848"></path></g><g transform="translate(0, 400)"><path d="M0 -300C18.6 -269.4 37.2 -238.8 63.4 -236.7C89.7 -234.5 123.6 -260.8 150 -259.8C176.4 -258.8 195.3 -230.4 202.2 -202.2C209.2 -174 204.1 -145.9 219.1 -126.5C234.1 -107.1 269.1 -96.3 285.9 -76.6C302.7 -57 301.4 -28.5 300 0L0 0Z" fill="#ffe2de"></path><path d="M0 -225C13.9 -202 27.9 -179.1 47.6 -177.5C67.2 -175.9 92.7 -195.6 112.5 -194.9C132.3 -194.1 146.5 -172.8 151.7 -151.7C156.9 -130.5 153.1 -109.5 164.3 -94.9C175.6 -80.3 201.8 -72.2 214.4 -57.5C227.1 -42.7 226 -21.4 225 0L0 0Z" fill="#f9a79f"></path><path d="M0 -150C9.3 -134.7 18.6 -119.4 31.7 -118.3C44.8 -117.3 61.8 -130.4 75 -129.9C88.2 -129.4 97.7 -115.2 101.1 -101.1C104.6 -87 102.1 -73 109.6 -63.3C117 -53.5 134.5 -48.1 143 -38.3C151.4 -28.5 150.7 -14.2 150 0L0 0Z" fill="#ea6b64"></path><path d="M0 -75C4.6 -67.3 9.3 -59.7 15.9 -59.2C22.4 -58.6 30.9 -65.2 37.5 -65C44.1 -64.7 48.8 -57.6 50.6 -50.6C52.3 -43.5 51 -36.5 54.8 -31.6C58.5 -26.8 67.3 -24.1 71.5 -19.2C75.7 -14.2 75.3 -7.1 75 0L0 0Z" fill="#df4848"></path></g></svg>