<?xml version="1.0" standalone="no"?>
<svg xmlns:xlink="http://www.w3.org/1999/xlink" id="wave" style="transform:rotate(0deg); transition: 0.3s" viewBox="0 0 1440 190" version="1.1" xmlns="http://www.w3.org/2000/svg"><defs><linearGradient id="sw-gradient-0" x1="0" x2="0" y1="1" y2="0"><stop stop-color="rgba(233, 84, 88, 1)" offset="0%"/><stop stop-color="rgba(233, 88, 88, 1)" offset="100%"/></linearGradient></defs><path style="transform:translate(0, 0px); opacity:1" fill="url(#sw-gradient-0)" d="M0,76L60,82.3C120,89,240,101,360,98.2C480,95,600,76,720,82.3C840,89,960,120,1080,117.2C1200,114,1320,76,1440,57C1560,38,1680,38,1800,31.7C1920,25,2040,13,2160,15.8C2280,19,2400,38,2520,53.8C2640,70,2760,82,2880,85.5C3000,89,3120,82,3240,88.7C3360,95,3480,114,3600,117.2C3720,120,3840,108,3960,107.7C4080,108,4200,120,4320,120.3C4440,120,4560,108,4680,114C4800,120,4920,146,5040,158.3C5160,171,5280,171,5400,167.8C5520,165,5640,158,5760,139.3C5880,120,6000,89,6120,91.8C6240,95,6360,133,6480,126.7C6600,120,6720,70,6840,66.5C6960,63,7080,108,7200,104.5C7320,101,7440,51,7560,44.3C7680,38,7800,76,7920,101.3C8040,127,8160,139,8280,148.8C8400,158,8520,165,8580,167.8L8640,171L8640,190L8580,190C8520,190,8400,190,8280,190C8160,190,8040,190,7920,190C7800,190,7680,190,7560,190C7440,190,7320,190,7200,190C7080,190,6960,190,6840,190C6720,190,6600,190,6480,190C6360,190,6240,190,6120,190C6000,190,5880,190,5760,190C5640,190,5520,190,5400,190C5280,190,5160,190,5040,190C4920,190,4800,190,4680,190C4560,190,4440,190,4320,190C4200,190,4080,190,3960,190C3840,190,3720,190,3600,190C3480,190,3360,190,3240,190C3120,190,3000,190,2880,190C2760,190,2640,190,2520,190C2400,190,2280,190,2160,190C2040,190,1920,190,1800,190C1680,190,1560,190,1440,190C1320,190,1200,190,1080,190C960,190,840,190,720,190C600,190,480,190,360,190C240,190,120,190,60,190L0,190Z"/></svg>