<?xml version="1.0" standalone="no"?><svg xmlns="http://www.w3.org/2000/svg" viewBox="0 0 1440 320"><path fill="#DF5858" fill-opacity="1" d="M0,256L30,261.3C60,267,120,277,180,266.7C240,256,300,224,360,186.7C420,149,480,107,540,112C600,117,660,171,720,192C780,213,840,203,900,192C960,181,1020,171,1080,176C1140,181,1200,203,1260,229.3C1320,256,1380,288,1410,304L1440,320L1440,320L1410,320C1380,320,1320,320,1260,320C1200,320,1140,320,1080,320C1020,320,960,320,900,320C840,320,780,320,720,320C660,320,600,320,540,320C480,320,420,320,360,320C300,320,240,320,180,320C120,320,60,320,30,320L0,320Z"></path></svg>